<?xml version="1.0" standalone="no"?>
<!DOCTYPE svg PUBLIC "-//W3C//DTD SVG 20010904//EN"
 "http://www.w3.org/TR/2001/REC-SVG-20010904/DTD/svg10.dtd">
<svg version="1.0" xmlns="http://www.w3.org/2000/svg"
 width="32.000000pt" height="32.000000pt" viewBox="0 0 32.000000 32.000000"
 preserveAspectRatio="xMidYMid meet">
<metadata>
Created by potrace 1.16, written by Peter Selinger 2001-2019
</metadata>
<g transform="translate(0.000000,32.000000) scale(0.100000,-0.100000)"
fill="#000000" stroke="none">
<path d="M0 160 l0 -160 160 0 160 0 0 160 0 160 -160 0 -160 0 0 -160z m195
118 c14 -6 25 -15 25 -20 0 -4 6 -7 12 -5 7 1 14 -8 16 -20 2 -13 8 -23 13
-23 5 0 9 -26 9 -59 0 -52 -3 -61 -25 -75 -14 -9 -25 -13 -25 -9 0 5 -5 0 -11
-10 -15 -26 -72 -22 -118 9 -38 24 -39 28 -43 86 -2 35 1 63 8 66 6 4 14 15
17 25 4 10 11 15 17 12 5 -3 10 -1 10 5 0 11 34 28 57 29 7 1 24 -4 38 -11z"/>
<path d="M112 229 c-30 -18 -33 -23 -30 -62 3 -37 7 -44 40 -62 31 -16 40 -17
60 -6 13 7 31 11 39 9 11 -2 15 10 17 52 3 55 2 56 -32 72 -26 13 -36 14 -40
5 -3 -9 -6 -9 -13 0 -7 9 -17 8 -41 -8z m3 -29 c3 -5 2 -10 -4 -10 -5 0 -13 5
-16 10 -3 6 -2 10 4 10 5 0 13 -4 16 -10z m8 -27 c-7 -2 -19 -2 -25 0 -7 3 -2
5 12 5 14 0 19 -2 13 -5z m90 0 c-13 -2 -35 -2 -50 0 -16 2 -5 4 22 4 28 0 40
-2 28 -4z"/>
</g>
</svg>
